<svg width="44" height="44" viewBox="0 0 44 44" fill="none" xmlns="http://www.w3.org/2000/svg">
<path d="M0 3.30506C0 1.47973 1.47973 0 3.30506 0H40.3218C42.1471 0 43.6268 1.47973 43.6268 3.30506V40.3218C43.6268 42.1471 42.1471 43.6268 40.3218 43.6268H3.30506C1.47973 43.6268 0 42.1471 0 40.3218V3.30506Z" fill="#201D1D"/>
<path d="M36.278 35.8644L34.0364 32.7466L29.2977 26.1499L26.2438 26.353L34.0552 21.9001V12.5166H23.7653V22.6673H19.5305V4.87433C19.5305 4.81039 19.4891 4.74645 19.4252 4.72013L13.3513 2.63281H12.6856C12.6743 2.63281 12.6593 2.63657 12.6442 2.64409L7.98445 4.88561C7.9318 4.91193 7.89795 4.96459 7.89795 5.02476V39.2455H19.5268V32.7917L22.9981 37.6095L24.1677 39.2417H38.8053L36.278 35.8644ZM8.44328 6.0327L8.95853 5.81081V6.50657L8.44328 6.73976V6.0327ZM8.44328 7.37534L8.95853 7.16098V7.85675L8.44328 8.07865V7.37534ZM8.44328 11.4033L8.95853 11.2153V11.9186L8.44328 12.1104V11.4033ZM8.44328 12.7422L8.95853 12.5617V13.2687L8.44328 13.4455V12.7422ZM8.44328 15.4313L8.95853 15.2658V15.9728L8.44328 16.127V15.4313ZM8.44328 18.1128L8.95853 17.9737V18.6694L8.44328 18.8124V18.1128ZM8.44328 22.137L8.95853 22.0242V22.7275L8.44328 22.8403V22.137ZM8.44328 23.4797L8.95477 23.3744H8.95853V24.0814L8.44328 24.183V23.4797ZM8.44328 24.8261L8.95853 24.7245V25.4316L8.44328 25.5218V24.8261ZM8.44328 26.165L8.95853 26.0747V26.7818L8.44328 26.8607V26.165ZM8.44328 27.5076L8.95853 27.4286V28.1319L8.44328 28.2109V27.5076ZM8.44328 28.8428L8.95853 28.7788V29.4821L8.44328 29.5498V28.8428ZM8.95853 38.9409H8.44328V38.2376H8.95853V38.9409ZM8.95853 37.5945L8.44328 37.5982V36.8949L8.95853 36.8836V37.5945ZM8.95853 36.2443L8.44328 36.2593V35.556L8.95853 35.5335V36.2443ZM8.95853 34.8866L8.44328 34.9167V34.2096L8.95853 34.1833V34.8866ZM8.96229 30.8323L8.43952 30.8925V30.1892L8.96229 30.1365V30.8323ZM8.96229 20.0196L8.68022 20.0948L8.43952 20.155V19.4592L8.96229 19.3276V20.0196ZM8.96229 14.6227L8.43952 14.7882V14.0924L8.96229 13.9156V14.6227ZM9.66559 33.48L9.1541 33.5214V32.8181L9.66559 32.7804V33.48ZM9.66559 30.7533L9.1541 30.8172V30.114L9.66559 30.0538V30.7533ZM9.66559 28.0266L9.1541 28.1018V27.3986L9.66559 27.3234V28.0266ZM9.66559 25.3L9.1541 25.3902V24.6944L9.66559 24.6004V25.3ZM9.66559 23.9385L9.1541 24.04V23.3443L9.66559 23.2315V23.9385ZM9.66559 22.5695L9.1541 22.6823V21.9866L9.66559 21.87V22.5695ZM9.66559 21.2081L9.37224 21.2758L9.1541 21.3284V20.6251L9.66559 20.501V21.2081ZM9.66559 19.8391L9.1541 19.9707V19.2674L9.66559 19.1396V19.8391ZM9.66559 18.4739L9.1541 18.6168V17.9135L9.66559 17.7743V18.4739ZM9.66559 17.1124L9.1541 17.2666V16.5633L9.66559 16.4129V17.1124ZM9.66559 14.3857L9.1541 14.555V13.8479L9.66559 13.6824V14.3857ZM9.66559 13.0205L9.1541 13.201V12.4977L9.66559 12.3172V13.0205ZM9.66559 11.6591L9.1541 11.8471V11.1438L9.66559 10.9558V11.6591ZM9.66559 10.2901L9.1541 10.4932V9.78987L9.66559 9.58677V10.2901ZM9.66559 8.92861L9.1541 9.13547V8.43218L9.66559 8.22532V8.92861ZM9.66559 7.55964L9.1541 7.78153V7.07447L9.66559 6.8601V7.55964ZM9.66559 6.19818L9.1541 6.42759V5.7243L9.66559 5.49488V6.19818ZM10.3726 38.9409H9.8574V38.2376H10.3726V38.9409ZM10.3726 37.5606L9.8574 37.5719V36.8686L10.3726 36.8573V37.5606ZM10.3726 36.1841L9.8574 36.2067V35.5034L10.3726 35.4883V36.1841ZM10.3726 34.8114L9.8574 34.8377V34.1344L10.3726 34.1081V34.8114ZM10.3726 33.4349L9.8574 33.4649V32.7692L10.3726 32.7278V33.4349ZM10.3726 27.9213L9.8574 27.9965V27.2933L10.3726 27.2256V27.9213ZM10.3726 26.5486L9.8574 26.6276V25.9318L10.3726 25.8415V26.5486ZM10.3726 25.1721L9.8574 25.2623V24.5666L10.3726 24.465V25.1721ZM10.3726 22.4153L9.8574 22.5282V21.8249L10.3726 21.712V22.4153ZM10.3726 19.6586L9.8574 19.7902V19.0869L10.3726 18.959V19.6586ZM10.3726 18.2821L9.8574 18.425V17.7217L10.3726 17.5788V18.2821ZM10.3726 16.9018L9.8574 17.0522V16.3565L10.3726 16.2023V16.9018ZM10.3726 15.5253L9.8574 15.6908V14.9875L10.3726 14.8295V15.5253ZM10.3726 14.1488L9.8574 14.3256V13.6222L10.3726 13.453V14.1488ZM10.3726 12.776L9.8574 12.9566V12.2495L10.3726 12.0727V12.776ZM10.3726 11.3958L9.8574 11.5838V10.8805L10.3726 10.6925V11.3958ZM10.3726 10.0193L9.8574 10.2149V9.51908L10.3726 9.31599V10.0193ZM10.3726 8.64279L9.8574 8.84964V8.15386L10.3726 7.93948V8.64279ZM10.3726 7.26252L9.8574 7.48066V6.77736L10.3726 6.55923V7.26252ZM10.3726 5.88602L9.8574 6.11544V5.41215L10.3726 5.19024V5.88602ZM11.0759 36.1615L10.5645 36.1841V35.4771L11.0759 35.4545V36.1615ZM11.0759 34.77L10.5645 34.8001V34.093L11.0759 34.0705V34.77ZM11.0759 33.3822L10.5645 33.4198V32.7165L11.0759 32.6789V33.3822ZM11.0759 29.2076L10.5645 29.2715V28.5757L11.0759 28.508V29.2076ZM11.0759 25.0367L10.5645 25.1307V24.4274L11.0759 24.3334V25.0367ZM11.0759 23.6489L10.5645 23.7505V23.0472L11.0759 22.9456V23.6489ZM11.0759 22.2574L10.5645 22.3739V21.6707L11.0759 21.5541V22.2574ZM11.0759 18.0902L10.5645 18.2294V17.5336L11.0759 17.3907V18.0902ZM11.0759 16.6949L10.5645 16.8491V16.1458L11.0759 15.9954V16.6949ZM11.0759 15.3072L10.5645 15.4651V14.7618L11.0759 14.6039V15.3072ZM11.0759 13.9118L10.5645 14.0886V13.3853L11.0759 13.2161V13.9118ZM11.0759 11.1363L10.5645 11.3243V10.6286L11.0759 10.4367V11.1363ZM11.0759 9.7485L10.5645 9.94407V9.24078L11.0759 9.0452V9.7485ZM11.0759 8.35319L10.5645 8.56757V7.86051L11.0759 7.65741V8.35319ZM11.0759 6.9654L10.5645 7.18354V6.48025L11.0759 6.26211V6.9654ZM11.0759 5.5701L10.5645 5.80328V5.09622L11.0759 4.87433V5.5701ZM11.7905 36.1315L11.2753 36.154V35.4507L11.7905 35.4357V36.1315ZM11.7905 34.7324L11.2753 34.7625V34.0554L11.7905 34.0291V34.7324ZM11.7905 31.923L11.2753 31.9756V31.2686L11.7905 31.2272V31.923ZM11.7905 30.5201L11.2753 30.5803V29.8845L11.7905 29.8244V30.5201ZM11.7905 29.1173L11.2753 29.1813V28.4779L11.7905 28.414V29.1173ZM11.7905 27.7145L11.2753 27.7897V27.0939L11.7905 27.015V27.7145ZM11.7905 26.3117L11.2753 26.3982V25.6949L11.7905 25.6159V26.3117ZM11.7905 24.9088L11.2753 25.0028V24.2995L11.7905 24.2055V24.9088ZM11.7905 23.506L11.2753 23.6075V22.9118L11.7905 22.8065V23.506ZM11.7905 20.6966L11.2753 20.8207V20.1249L11.7905 20.0008V20.6966ZM11.7905 19.2975L11.2753 19.4291V18.7221L11.7905 18.5942V19.2975ZM11.7905 17.8947L11.2753 18.0376V17.3343L11.7905 17.1914V17.8947ZM11.7905 15.0853L11.2753 15.2507V14.5474L11.7905 14.3895V15.0853ZM11.7905 13.6862L11.2753 13.8517V13.1559L11.7905 12.9791V13.6862ZM11.7905 12.2796L11.2753 12.4601V11.7568L11.7905 11.5763V12.2796ZM11.7905 10.8768L11.2753 11.0648V10.3691L11.7905 10.1772V10.8768ZM11.7905 8.07112L11.2753 8.27798V7.57468L11.7905 7.36031V8.07112ZM11.7905 6.6683L11.3806 6.84506L11.2753 6.88643V6.18313L11.7905 5.96499V6.6683ZM11.7905 5.2617L11.2753 5.49112V4.78783L11.7905 4.55841V5.2617ZM12.49 38.9409H11.9786V38.2376H12.49V38.9409ZM12.49 34.6948L11.9786 34.7211V34.0178L12.49 33.9915V34.6948ZM12.49 33.2807L11.9786 33.3183V32.6112L12.49 32.5811V33.2807ZM12.49 30.4449L11.9786 30.5051V29.8018L12.49 29.7416V30.4449ZM12.49 29.0233L11.9786 29.091V28.3952L12.49 28.3275V29.0233ZM12.49 27.6092L11.9786 27.6882V26.9849L12.49 26.9096V27.6092ZM12.49 26.1913L11.9786 26.2778V25.5745L12.49 25.4955V26.1913ZM12.49 23.3631L11.9786 23.4684V22.7651L12.49 22.6635V23.3631ZM12.49 21.949L11.9786 22.0618V21.366L12.49 21.2494V21.949ZM12.49 20.5311L11.9786 20.6552V19.9519L12.49 19.8278V20.5311ZM12.49 17.6953L11.9786 17.8383V17.135L12.49 16.9921V17.6953ZM12.49 16.2812L11.9786 16.4317V15.7359L12.49 15.5817V16.2812ZM12.49 14.8671L11.9786 15.0251V14.3293L12.49 14.1638V14.8671ZM12.49 10.621L11.9786 10.8091V10.1058L12.49 9.91397V10.621ZM12.49 9.1994L11.9786 9.39498V8.6992L12.49 8.49611V9.1994ZM12.49 6.36742L11.9786 6.58556V5.8785L12.49 5.66412V6.36742ZM16.1946 10.6963L16.8903 10.8843V11.5876L16.1946 11.3995V10.6963ZM14.0019 37.5343L13.2987 37.523V36.8197L14.0019 36.831V37.5343ZM14.0019 34.7211L13.2987 34.6948V33.9915L14.0019 34.0178V34.7211ZM14.0019 33.3183L13.2987 33.2807V32.5774L14.0019 32.6075V33.3183ZM14.0019 29.091L13.2987 29.0233V28.3275L14.0019 28.3952V29.091ZM14.0019 27.6882L13.2987 27.6092V26.9134L14.0019 26.9886V27.6882ZM14.0019 26.2778L13.2987 26.1913V25.4955L14.0019 25.5745V26.2778ZM14.0019 24.875L13.2987 24.781V24.0852L14.0019 24.1755V24.875ZM14.0019 23.4684L13.2987 23.3631V22.6673L14.0019 22.7688V23.4684ZM14.0019 22.058L13.2987 21.9452V21.2419L14.0019 21.3585V22.058ZM14.0019 20.6552L13.2987 20.5311V19.8278L14.0019 19.9519V20.6552ZM14.0019 19.2449L13.2987 19.1132V18.4099L14.0019 18.5416V19.2449ZM14.0019 17.8383L13.2987 17.6953V16.9921L14.0019 17.135V17.8383ZM14.0019 16.4317L13.2987 16.2812V15.5779L14.0019 15.7322V16.4317ZM14.0019 15.0251L13.2987 14.8671V14.1638L14.0019 14.3293V15.0251ZM14.0019 12.2119L13.2987 12.0351V11.3281L14.0019 11.5086V12.2119ZM14.0019 10.8053L13.2987 10.6173V9.91022L14.0019 10.102V10.8053ZM14.0019 9.39498L13.2987 9.1994V8.49611L14.0019 8.6992V9.39498ZM14.0019 7.99214L13.2987 7.7853V7.08199L14.0019 7.28885V7.99214ZM14.0019 5.17896L13.2987 4.95707V4.25377L14.0019 4.47567V5.17896ZM14.9647 37.5456L14.269 37.5418V36.8385L14.9647 36.8498V37.5456ZM14.9647 36.154L14.269 36.1315V35.4357L14.9647 35.4507V36.154ZM14.9647 34.7625L14.269 34.7324V34.0291L14.9647 34.0554V34.7625ZM14.9647 30.5765L14.269 30.5164V29.8206L14.9647 29.8808V30.5765ZM14.9647 29.1813L14.269 29.1173V28.414L14.9647 28.4779V29.1813ZM14.9647 26.3944L14.269 26.3079V25.6121L14.9647 25.6911V26.3944ZM14.9647 25.0066L14.269 24.9126V24.2093L14.9647 24.3033V25.0066ZM14.9647 23.6075L14.269 23.506V22.8027L14.9647 22.908V23.6075ZM14.9647 22.2198L14.269 22.1069V21.3999L14.9647 21.5127V22.2198ZM14.9647 19.4291L14.269 19.2975V18.5942L14.9647 18.7221V19.4291ZM14.9647 16.6385L14.269 16.4956V15.7886L14.9647 15.9428V16.6385ZM14.9647 15.2507L14.269 15.0853V14.3895L14.9647 14.5474V15.2507ZM14.9647 13.8479L14.269 13.6824V12.9754L14.9647 13.1521V13.8479ZM14.9647 11.0611L14.269 10.873V10.1697L14.9647 10.3615V11.0611ZM14.9647 9.67328L14.269 9.47019V8.77441L14.9647 8.96622V9.67328ZM14.9647 8.27798L14.269 8.07112V7.36406L14.9647 7.57844V8.27798ZM14.9647 6.88643L14.8256 6.84506L14.2652 6.6683V5.96499L14.961 6.18313V6.88643H14.9647ZM14.9647 5.49112L14.269 5.2617V4.55841L14.9647 4.78783V5.49112ZM15.9351 34.8001L15.228 34.77V34.0742L15.9351 34.0968V34.8001ZM15.9351 32.0396L15.228 31.9869V31.2911L15.9351 31.34V32.0396ZM15.9351 30.6555L15.228 30.5953V29.8921L15.9351 29.9522V30.6555ZM15.9351 29.2715L15.228 29.2076V28.5043L15.9351 28.572V29.2715ZM15.9351 27.895L15.228 27.8198V27.1127L15.9351 27.1917V27.895ZM15.9351 26.511L15.228 26.432V25.7287L15.9351 25.8152V26.511ZM15.9351 25.1345L15.228 25.0405V24.3372L15.9351 24.4312V25.1345ZM15.9351 20.9937L15.228 20.8696V20.1625L15.9351 20.2866V20.9937ZM15.9351 19.6134L15.228 19.4818V18.7785L15.9351 18.9064V19.6134ZM15.9351 18.2294L15.228 18.0902V17.3869L15.9351 17.5299V18.2294ZM15.9351 15.4689L15.228 15.3109V14.6076L15.9351 14.7656V15.4689ZM15.9351 14.0886L15.228 13.9118V13.2161L15.9351 13.3853V14.0886ZM15.9351 11.3243L15.228 11.1363V10.433L15.9351 10.6248V11.3243ZM15.9351 9.94407L15.228 9.7485V9.0452L15.9351 9.24078V9.94407ZM16.8979 37.5719L16.1946 37.5606V36.8573L16.8979 36.8686V37.5719ZM16.8979 36.2067L16.1946 36.1841V35.4883L16.8979 35.5034V36.2067ZM16.8979 32.1035L16.1946 32.0508V31.3551L16.8979 31.404V32.1035ZM16.8979 29.3693L16.1946 29.3016V28.5983L16.8979 28.6622V29.3693ZM16.8979 27.9965L16.1946 27.9213V27.2256L16.8979 27.2933V27.9965ZM16.8979 26.6276L16.1946 26.5486V25.8415L16.8979 25.9318V26.6276ZM16.8979 25.2623L16.1946 25.1721V24.465L16.8979 24.5666V25.2623ZM16.8979 23.9009L16.1946 23.7881V23.0923L16.8979 23.1938V23.9009ZM16.8979 22.5282L16.1946 22.4153V21.712L16.8979 21.8249V22.5282ZM16.8979 18.425L16.1946 18.2821V17.5788L16.8979 17.7217V18.425ZM16.8979 17.0522L16.1946 16.9018V16.1985L16.8979 16.3527V17.0522ZM16.8979 14.3218L16.1946 14.145V13.4493L16.8979 13.6185V14.3218ZM16.8979 12.9566L16.1946 12.776V12.0727L16.8979 12.2495V12.9566ZM16.8979 8.84964L16.1946 8.64279V7.93948L16.8979 8.15386V8.84964ZM16.8979 7.48066L16.1946 7.26252V6.55923L16.8979 6.77736V7.48066ZM17.8607 34.8791L17.1574 34.849V34.1457L17.8607 34.172V34.8791ZM17.8607 33.5251L17.1574 33.4838V32.788L17.8607 32.8256V33.5251ZM17.8607 32.1674L17.1574 32.1185V31.4152L17.8607 31.4641V32.1674ZM17.8607 28.1018L17.1574 28.0266V27.3234L17.8607 27.3986V28.1018ZM17.8607 26.7479L17.1574 26.6689V25.9619L17.8607 26.0522V26.7479ZM17.8607 24.0363L17.1574 23.9347V23.2277L17.8607 23.3405V24.0363ZM17.8607 22.6823L17.1574 22.5695V21.8662L17.8607 21.9828V22.6823ZM17.8607 21.3284L17.1574 21.2043V20.501L17.8607 20.6251V21.3284ZM17.8607 19.9745L17.1574 19.8428V19.1471L17.8607 19.2749V19.9745ZM17.8607 18.6168L17.1574 18.4739V17.7781L17.8607 17.9173V18.6168ZM17.8607 17.2666L17.1574 17.1124V16.4166L17.8607 16.5671V17.2666ZM17.8607 13.201L17.1574 13.0205V12.3172L17.8607 12.4977V13.201ZM17.8607 10.4932L17.1574 10.2901V9.58677L17.8607 9.78987V10.4932ZM17.8607 9.13547L17.1574 8.92861V8.22532L17.8607 8.43218V9.13547ZM17.8607 7.7853L17.1574 7.56339V6.86763L17.8607 7.08199V7.7853ZM18.8235 38.9409H18.1202V38.2376H18.8235V38.9409ZM18.8235 37.5982L18.1202 37.5945V36.8874L18.8235 36.8987V37.5982ZM18.8235 34.9167L18.1202 34.8866V34.1833L18.8235 34.2096V34.9167ZM18.8235 33.5778L18.1202 33.5364V32.8406L18.8235 32.8707V33.5778ZM18.8235 30.8925L18.1202 30.8323V30.1365L18.8235 30.1892V30.8925ZM18.8235 29.5498L18.1202 29.4821V28.7788L18.8235 28.8428V29.5498ZM18.8235 26.8645L18.1202 26.7855V26.0785L18.8235 26.1687V26.8645ZM18.8235 25.5218L18.1202 25.4316V24.7245L18.8235 24.8261V25.5218ZM18.8235 24.183L18.1202 24.0814V23.3744L18.8235 23.4797V24.183ZM18.8235 21.4939L18.1202 21.3698V20.674L18.8235 20.7981V21.4939ZM18.8235 20.155L18.1202 20.0234V19.3276L18.8235 19.4592V20.155ZM18.8235 17.4735L18.1202 17.3193V16.616L18.8235 16.7702V17.4735ZM18.8235 16.127L18.1202 15.9728V15.2658L18.8235 15.4313V16.127ZM18.8235 14.7844L18.1202 14.6189V13.9118L18.8235 14.0886V14.7844ZM18.8235 12.1104L18.1202 11.9186V11.2153L18.8235 11.4033V12.1104ZM18.8235 9.42129L18.1202 9.20693V8.51115L18.8235 8.71425V9.42129ZM18.8235 8.0824L18.1202 7.86051V7.16473L18.8235 7.37911V8.0824ZM18.8235 6.74351L18.1202 6.51033V5.81456L18.8235 6.03645V6.74351ZM19.5305 32.7692L19.5042 32.7278H19.5305V32.7692Z" fill="#F4F4F4"/>
</svg>
